<svg width="400" height="300" viewBox="0 0 400 300" fill="none" xmlns="http://www.w3.org/2000/svg">
  <defs>
    <linearGradient id="supportGradient" x1="0%" y1="0%" x2="100%" y2="100%">
      <stop offset="0%" style="stop-color:#667eea;stop-opacity:1" />
      <stop offset="100%" style="stop-color:#764ba2;stop-opacity:1" />
    </linearGradient>
  </defs>
  <rect width="400" height="300" fill="url(#supportGradient)"/>
  <g transform="translate(150, 75)">
    <!-- Headset -->
    <path d="M50 20C30 20 15 35 15 55v20c0 8 6 15 15 15h10v-30c0-15 10-25 25-25s25 10 25 25v30h10c9 0 15-7 15-15V55c0-20-15-35-35-35z" fill="white" opacity="0.9"/>
    <!-- Microphone -->
    <rect x="45" y="85" width="10" height="25" rx="5" fill="white" opacity="0.9"/>
    <rect x="42" y="115" width="16" height="4" rx="2" fill="white" opacity="0.9"/>
    <!-- Sound waves -->
    <path d="M20 50 Q15 55 20 60" stroke="white" stroke-width="3" fill="none" opacity="0.6"/>
    <path d="M80 50 Q85 55 80 60" stroke="white" stroke-width="3" fill="none" opacity="0.6"/>
  </g>
  <!-- 24/7 text -->
  <text x="50" y="250" font-family="system-ui" font-size="18" fill="white" opacity="0.7">24/7</text>
  <text x="320" y="50" font-family="system-ui" font-size="16" fill="white" opacity="0.6">Help</text>
</svg>